<mxfile host="65bd71144e">
    <diagram id="jezz2yxEFpSWnWH2zEDG" name="Page-1">
        <mxGraphModel dx="812" dy="698" grid="1" gridSize="10" guides="1" tooltips="1" connect="1" arrows="1" fold="1" page="1" pageScale="1" pageWidth="827" pageHeight="1169" math="0" shadow="0">
            <root>
                <mxCell id="0"/>
                <mxCell id="1" parent="0"/>
                <mxCell id="2" value="" style="shape=image;verticalLabelPosition=bottom;labelBackgroundColor=default;verticalAlign=top;aspect=fixed;imageAspect=0;image=data:image/png,iVBORw0KGgoAAAANSUhEUgAAAW8AAAEWCAYAAACpERYdAAABNWlDQ1BJQ0MgUHJvZmlsZQAAeJx9kLtKA1EQhj9DQBStYqFgsZXYqEk0iYIWJjHBNlFMtNpsLkguLpsV8xC+gJ2dnZVg7xMIgpWIjb1aWPufLLIBiXOYM9/O/OycGYjMI4vGodvzvVIxa1Wqx9bkGxM6Q7Odvst4k+r7OdA+rfyjG2dT9UbfUfyQ+56a65d18Vwr4IHhWsCXhi981xdfG/YOSjnxnXi5NcK1EXZcz+hfxNvdzrkTvpuZRu+wrFiRL1LkTKdFhwZrlGlzii3Ks0WKdd0JNsjqTlEgx6Y4TlrfefZUL5BUTLM7rBttxlTNPoOWgwfYuVLr9zB39Aq3esPCZ5hbymi0GNy3w1y4Y9f27GEqKo80m/B1A7NViD3C9MnvYsfMav2Z1WKfHg6roqQmSpD+ASrZSt6xG2vjAABn9UlEQVR4Xu1dB1hc17EeRO8dBEgCJNR7s5pldffeey+xnWYnjpO8JE6z42e/xHGKkziOa1zlIveiZsuW1XuXkIQAAQJE70X75r9wYVl2b9nC7qIZf/fDgnPOPee/c+fOmTOFSEgQEAQEAUFAEBAEBAFBQBAQBAQBQUAQEAQEAUFAEBAEBAFBQBAQBAQBQUAQEAQEAUFAEBAEBAFBQBAQBAQBQUAQEAQEAUFAEBAEBAFBQBAQBAQBQUAQEAQEAUFAEBAEBAFBQBAQBAQBQUAQEAQEAUFAEBAEBAFBQBAQBAQBQUAQEAQEAUFAEBAEBAFBQBAQBAQBQUAQEAQEAUFAEBAEBAFBQBAQBAQBQUAQEAQEAUFAEBAEBAFBQBAQBAQBQUAQEAQEAUFAEBAEBAFBQBAQBAQBQUAQEAQEAUFAEBAEBAFBQBAQBAQBQUAQEAQEAUFAEBAEBAFBQBAQBAQBQUAQEAQEAUFAEBAEBAFBQBAQBAQBQUAQEAT6EoGAvryZM/eqq28I4n6hfJ3qvNr5p6XzUoe0REVG4Hf9lhgHrWfl7HN0B2bO3tv2WfWai688UxvsHa23x/zdMXedZ07uuEe/fWFOg4W568VzGipm0MgdBY3zD5e13LSjoCmFB1rD10m+wvlK5WsIX4l8hfEV0nlBoA+wunB/vDwQ8BDuqqC3FvL2BJW6fvxUL4xl/XvbtTnCzPr3RoSi2saZZ2DbR+/ftvPR+7fe87TFTcVMay16mJidkzO4Wa/Lur+ZsWzbqvO2x2v21ozfufohth7X+v7W67P9vTo/e79X3x/dD6oeY9j5u6O5Ws/HHj/Ze1ZGnpOtYqeOo/5eUf6yEoN3Dk0O/eaCKcmvO7Emn+hiBAyPTZQFd9Ljn5SWbc5rpITIQKqob2/kmx3k6wRfUXwl8QXhDcEtJAgIAoKAWxEYGBu060fnJF8/PjNut1sH7oPBvCa8WXAn3P/q8ZMnqtuUZU5Mo/o12wsj+X+L+arpFNjQvEVw9wEjyC0EgdMJgbDoWAqNiFaXXPXvWwaNGJwSXeZPGMD84BV6bX3Vr1TBfWjjCvo6dxcENwgCGyYT2LlVwa2aQwL5dzCXCAkCgoAg4BICCRlDaeSscykoJDTuX1+dfI4Hu8SlAfu4s9cE4aa8hnG81s0lubtO8GW9bMwprlOAq7/H74JFcPcxd8jtBIF+jEDF8SOUv2udskI23V689XDlLH9artc07xM1basgpCtL8h+yBSwiLJjuuGTap5NGZbyRlhh9dNuB40ty80+OfuHDLVf6E7gyV0FAEPAOAuOGpR6+6KzRSyePyljNMwjacbBo0fYDxTM+/mb/HOsZnTi6j4ZOna/86uCJ5rP4R4c09wPymvBuabPEMD5RrU0NPWAaNiiR/vjgBf8bHhZaXdsaGH+yhWLHjsw6MnN85o7504auuuWRpc/4Aa4yRTsIpMaHUXR4MEWFO8d2eu4q7gC9pfUU1TS0UnV9C9U1dpzHCPkXArddNPXlWy+e+kxNkyWlvi0wxWKhsJmTcnadPXP4mjkTM9f//O+f/0hdUVtLU9fiGlpOwWTrN+TcW+Se5Y3kYRKsh0pJiKLnH7niV7tLg5a8sTl0bo+/RZ4qu3Zs4AP/98D5P/rxU5/80T1TkFE8jcCYzFiakpNAY7LiKCzYa1Y6p5Z5pLiO9uVX0+rtJ+gUSwAh30fgf+5Y8DsW0u+8tz/03i3FQfdYz3jywLY9V0zK/MXlC8fOfnfVHnsmEpyz+Q15U3jHMUojrJH64fVzNu4talnyxoHIuVMzw1dkJoWszE4K2bbneNMlBZWts97YQz+5b1rG9/jL+iKbUG71G5RPw4lmJEXQedPTCcIbFBsbS9HR0RQcHExBQd5kO+2H0d7eTm1tbdTQ0KDMdWhaFM2bkEqfby6itXv8yhnhtOO6qaMzdkJwrzoafAkL7hvm5ES8kJMSCjPIqdzS5jPW5jbcHR926q4fXDfnt4Unqp/duKdwsA1IcIjwG/LmW4QDyB5gTRqZvmNDccRlQG/RmKiHF45L2or/Z7fC5W9tqvrDW8ebflLbHBAzZliq3/lk+g1HuGGiE4bG042LsikoMIBGjBhBWVlZFB4eTmVlZVRcXKz8hHD0NYKwjomJoZSUFJo0aRJBkGOuu3btoivmDqHU+HB695t8X5u2zKcTgYSY8Ar+3wEFNYFQCgfcOCv+ieyBMfvx56Ly2pcPnWhZUFzXzo4SrfFjh6YesCO8/Wp75U3hnc2YJquclzM4kSLDgj8rqg28Hb9TBTf+n8OAT3255+QmRZC3Dojmw4idwrG+icDU4Ql0AwvuiIgImj17NsXHx1N5eTlt2bKFTp5E4KzvUktLC9XX1ysfmN27d9PYsWNp5MiRlJ6eTnv37lUmDnv9y8uP+O4iTuOZJSdElfDyA/NrBowbmhyyNTk6qGurlJ4U3fr0Z4Ufrd7X+gC3CRqRmbSdfy62gQvRl35D3jRCplmjVFpZj38ejQ61bMD/bDtSmaP+HQE95XVto/Hv0EBq5K+oXx0s+A03uDjR7IFRiuCGeWTRokWK4D569CitXr3a5wW37dKhde/cuZPWr1+vmE8mTpxIEyZMoEnD4unCGRkuIiXdPYFATV1TPI9riQ21FLC8yGCniEjr/DC7jzctjg+zYMvXUlpRZ2sywZT86oTam5p3j+hOBp72HCmbODA8cTlR9Oxt+Y23s7a9YURqyMEv99edv6uwaQGDWxsZ1Fa9Zv9xuPT4HMXHhFNmWgJlpMRSamI0JcZGUkx0GO8oQik0JJACB3R8K5tb26ixqZVq65uooqaRyirrqKismgpKKvmq8rl1GZ3Q5WcOpoCAAJozZw6FhYXRsWPHaPPmzUa7+2S7goICZV4zZ85UtPDq6mpayP8+dLyWDhQiENj/KC6a+TS9J5/GRjGfhocwnwb15NNm8GkzVdY0EAs8KmY+zWceBa/6GpVXNQzkObUPjjm1a0vxqdmf7a69YlxG2Df7CqobOH/SOS+urRx/Rkb7Sm5Ts+NQySQ78/crzdubwhtRkz00/0/X7r/5xzfNvb24sW34W5uqf2YL7oXDWx6ODB3Q+Oqn2+/yNuMEBwXStDGDaeKoDBo3LI1GZacSvGVcpaaWNjqYV0p7DpfQzkNFtHVvARWX+76QmDUmiXBICVsxNO+6ujrFVNIfCAI8Li6ORo0apZhS8vPzadGUgX4hvIMCB9C0sUNo0kjm05w0GpmdQqkJXWHhTj+eZvDpsU4+Pch8uq9QUUC8Set35U88cKx87IzUmG8KamLnvPxt5eM8HySzUygl8lTeGQOb3vxyc96CVZsOw9vNliCT/Ia8Kbx7HQ58uGbfgrmTsxZdOm7wr4bFNq8tqg8ZXVY/IDk9uv3QwND6/DHpIQce+deKp1hbdV1KOvGI0pNjaf70HJo7ZRjNmpBFAwa4PzVMGGs+E0akK9d1501RZnkov4zWbjtKX23JpS0szH2R5oxNodDQUBo0aJAyvX379ikHfv2F9uzZQ9nZ2RQZGUk5OTlksRwimImOltT53BLTkmNo/rThzKdDFT4NZAHuboKGPn54unJde24Hn+bml9Pa7UeYTw/T5j3eOdj97bMrn3j10WvOuSKn8k/HG6MyCmsCc9osFJoRfaooO7Lu2MCY0MJ7X1/rKFZEhLdBRgFQvVxzfvL0p89xZNRK1sDvGU8tn3IbeKWwaaF10P++tO7XX24+MtPg+G5pBia98KyxdN6ZY+iMcUhwqE+nTp0i9bKwfzAukPoTpgXrawCbU3Dhd/Zo+JBkwnXrJWfQ8dJq+mztPvr46738sviG61pSTCilJ4ZTQkKCYi5pbm6mvLw8faD8qAWeJ8xA8J5JTU2lQ4cO0ajBMT4jvEOCA7v4dMb4TEPIuptPc4YkEa5bLj5D0cI/X7uf+XQPa+h9x6eFpdXp5373hU33XjXjqUvmjXnljIy2rxgM5cXac6Rq5sNPffUaK3+OlFbxNjHEOR35t+0Sa+CLeFuzKTk+spZD5VtPVjXEVtQ0JLW29d2HEcLyyiWT6LKF4yksVPl+9CIIY/gEq77BeBlc0TZVIR4YGKj4QuPC76wJ9vQ7LpupXN/uOErvrNhBy9cdMAi5Z5plsy80KCkJGXyJSktLPXMjL49aUlKiCG940oSGhtHwjGj6VPGB8h4NG5zUyacTCGklvMGn4Fdc1oRd6m2XzlCudTvzFD794lvFa8/j1NjcGvan/37zs+ff3/ydlPioSlaf6GR1Y1xFdUOPoECPT8TDN/Cm2URTEtc3tsTj8vD6ew0/kc0VN144nc6ZPcrurSGsW1tbFaGNy52kakIYF9orCMJbDWzBT2vtfPbEbMIFs8qrH2+md1d6x4MyJqJDaISEdJgXa2p830bvzHOzXldISDDFRXkvIG/88DS68YLpvCNUnLB6kTf4FMoGeNSWT2G6wZV71RyFTyHI+4KqapvicfXFvbxxD28Kb2+s1+E9c1iDueuKWYp5xJagTcMHGBcEbF8S7gdBrgpzCEi8HKqgxFywS/j1vefxyzyNnntvPX3CJpW+pOhO4a3eEx+3/kh4/iDwA55BZFjfB+QN5dw/d10+iy5gU56v8an6jmBe9vgU79gj3zmXlaNp9J9319NHa/b0RzbpszV5U3j7hH0JXiPfvW4u3XbJjF6gQ2CCId2tYbvydNUXpLGxUXlBcEiomlZyWIg//oOL6NIF4+lvb3xNO9kLoC+oqaXjYBJCG/OzNfX0xRz68h5NTU2KAG/pQzMe3EzBpzCX2RIwB6/6Ip8ikhY8as2nwwYl0WPfv5AuYT79O/Pp9gPH+/Lx9Zt7ndbC++xZo+iBm+YrftkqwY6tarp9rWWb4SrMDUIEF4Q4DgpVu+NM3qLiemHZBnrqv1+aGdaptrWchU8V3rW1tYpHRn8khM6DN4A5PlTV9X2zw1g8YwTz6QIaPDCuB6yYB+bjy3yK98kRn+JgFddLH2ykP76MzK1eJ59QKI2icFoKb5zM/+yOJXTF4om9XgYwmuoVYhREb7dTtXFbIY7DojmTsukPz6/wqIthSWVHWk34diOIBX7e/ZESExOpsrJS0bqhUR4v92x+Frj4/eyOxXT12ZP7NZ/COwV8+jjz6cbd3nEx9Ed+db8DqHEUvPKVmzJ6EL355K09BDeEHw6jYIrwN8FtDbe9dYzISqEXfnu9curvKTpcVEuNbDqB4AZhHgiN72+EzIgQ2urBJdLFeoomclDNW8yn1oK7P/MpTH7P/fo6uvPyPvUE9tTj65NxvSm8+2SB1jfBi/Di724g2NxA2G5CW0QyIldc/Pp8ITo3xO4BAkY9YEPzB26cT39gO6Maou/uOW89VKHcE2YT3Dc5uSvnmLtv5ZXxrNdz4sQJTnFwivYe84zwxo7wlUdvVA6iVT4Fj54OfPr96+fR//7wYsJZlBfIKwqls+v0pvB2f3iiBgqwbf/i7rO7WsBWCE2xv3pG4MOkvvDqbgIeCi89egMNSo1zll8c9luxtYR3LUTwhQbBdKL6fbv9Zn08IA5gBw5E2gwOFuMUscD1C87v7YkDyx/cME/xyFBJ5VPrD3EfL9+jt7PHp3B/fJk/XkPS+t/uzZ1gelN4u3MdmmM9+r0LurxJIMjw8vliPmlPAKJutdWP1AQOZ37+N9cpYc3uJJQN+3TjcUX7Ru4PUGZmppITxJ8Jghvh8DhPUNeWX1pPq3eccPuyfnv/+V3eJKc7n44dNpD59HolJ4uQfQS8Kbz7RPN++uHL6aJ5KFTP+R45+MXWnOBJxoBWoeaIrqqqooqKCuXAC6YFmDb6yrVLNQ/hnqCBSTGKHfyMccbCqI1itGJbCa3fV65op2o2vmHDhinh5P5I8JpBJkHsIvD8cnMPU0NzO/135VG3L+dPP75UcfFU+VQ1P7n9RnYGVGMJYEK05lP1HMhbfIpEby/87nqaNTGrL2Dwu3t409vE48L7bz+/ks7iJFIgVYh66gnhZYPQKioqosLCQjp+/LgipPUIml1GRoaS0AkXBB20VU+UCsOBLGz7EErwuHnmf66i+x9bSht2HdObpuG/v/XVMbarB9B07oEtPwoZYF1YE8LmIRx8/VAY4e8w+cDOjbmiOAOeKwoToxBDeXVH9Ku76C8PX6EkPOsLPoVABp/CvIU1gU/xTPQIQUngU1xpaWlKtSHksvE0n+KMpoNP36Zvt7v/o2mzbo/LJD2czfzdm8LbzDxNt/3zTy7vEtzQOCG43EkQgmD+AwcO0NatW502w0DrgZaqaqrqHMeMGUPjxo1TTA/u9JvGRwwCSRXgf//5VXTnb16n7fvdFyjx+uo8qqhtpnOmkXKuABc7eGpgLcjMB5OVL541wE8e/vIQSJgjni+qAGGuuexR89rKPKpi85A76Y+scauC2xN8Cq0ZH5/c3FylnBt2f84QMECyMeuEY8Bp9OjRSqrcIUOGuNVFVI1mjoqKUg7Z/86K2J2/fsOjLq/O4OLNPv1SeP/+uxfQwjOGK7hCaKvmAncADa0FFVa+/vprdwzncAyU3VJLb2HrPn36dEXw2SYAcmYSeBGxK8CLAQ38Tz++jF+M1+lIofvKlH2+uZh2HK6ixZz3GglD1RJoyM0S6MMFiJX8MlapbE+wD/vyrcUEbxp30284pcGSmR1ppd3Np9jlgH9QCcid/G+NAT4M+CDgAkHhmDx5ssKn7tDIMb7KpxDgTz10Gd3xyOtKLh8PkV9p3l6b7LlP7kOEQ/jOFUupurTQbc8Cp/VqCLE7XwhoHF999ZVS1stbBBPL+eefr2jk0BBdJXwIIMAx7gEuAHHrL18lTgbm6rC9+odzFaFRQ2JpUHIExYQHK3UgfZWaW9uptrGNKxw10/6CGiqucO+OTV03Qt3vvmK22wU3+HTdunXKjtBbhF3dggULFGEOE5SrZM2nhwvK6RbmU1TechfNvR5lLYmunh77v7fPT/+pu8b19Dj9SnjDP1Z1s3KX4EYO5y+++EKxDfoSXXDBBUrVGtgiXSHrF2PVxkP0wyfedWU46WsAARxMwrME5E4+/fLLL72qXNguHflMFi9erNT+xP+7QtZ8imIP3/vD264M16OvlfB+goX3w24b2MMDedPbxK1LQ+UZVXCruRRcuQG8Qt566y164YUXfE5wY10ff/wxPfnkk0pRAFcItnu4ToJgavredT5ZHtSVJfpUX7jAqYLbHXwKG/b777+v8Kk3d4X2QMaBNfj0mWeecXknoPIpzmvmTR1GP+Sgs9Od+oXwhh31l3efozxLMIyrh5Oovfj000932Zx9lUlwqPPqq6/S22+/bcizxdE6YFuEmxgIaXHV8wJfXbc/z+uX93TwKZ6dq3y6bds2+sc//kH46cuEQ+vXX3+dli1b1pVCwZn5gk9VReN2Tvegnhc4M1Z/6OO7xkcT6CJ5z0jO4YGH60rwDdyoPvjgA+Vk3l0UHNzGh4ztFDDgFA0IQE2PALKcCmCXvUCebxCH6Ltuudq9ezfhuuGGG2j48I6DWrOEQ0wIk/DwcCVp1+Y9BVTD1e2F3IfAw7ctojFDByp8qgohZ0aHMIQpD3U13UVBwe0UFNjmUT7dvn27ooFfdtllSkUiZwh8incctvSf3cl8yjVdUdneTeRX4fF+L7zhZoUCqGpEmrMPEbZtbD1dofDwJhZ+jRTGP0NDmik4pJUr32jzAwR4c0soNTeGsvAM4yuCBbtzGyJo4QsXLqS5c+c6rIeptT5s43F4mZoYTQ/dupB++fdPXIFD+lohgKLVN3CxDHfw6ZtvvumSkqLyaWh4M4WFNPUpn0JBeO211xQ+PfPMM53K/Y7dNWzgSXGRCp/+/C8fnZa85k3h7brKyY/sgRsXKA8OmoyzeY3h+vfuu84d1EVGNrB/K+ewjqpn9yjzZdHQB1dkRIfduWMtkWwGiaLamhjTmvmqVasIiZMuueSSHtV2jHI3tBq4eSFR/upNubRq40GjXaWdBgLIrQMCvs7yKVzy3nvvPaf6R0Q2KnwaFVXndj6tq402rXCAT+E+eu655yq7PbOk8imKg3/JfPrFur6pj2l2np5s703h7fK67r92LmVnJHQlx3dmwG+//VbZgpohFHmPi6/iwJNqPkXvjrYLC0chVvZj5gjDAV0/UYey+3enTln45cOFclqd/88/2/E7LkjTzKlVIyPrlSs1tZRthLFUVRnHtvyO+pBGCNtpRM1df/31TgX44MVASPj32J1NhLcRxLXbfIdrN6IEmFqZyZkRN2zYQJ9++qnprvEJHuBT5t1mThOg8qlF5dMq5tMm43y6Y8cOxQZ+xRVXOBXgY82nIrxNs4b3OqCqyD1XzlbCvZ09+FmzZg1BAzBDCQmVFM9XaFg7awyBfIUqP0NDA9lUYWYkx21bOd1oYyPW1c73qeHQ8ipm8hiqOJnAB13GXg64NsIMdNttt5kW4LDJwoSCyuS3XzqTnl+2vtdk46LD6ckfXUZrtx2hF9/v/vvYYWn08O1L6PVPN9On3/SspYlkWHdePpumjR1CYaHB7Ft+gv619Bv6arP5M4bRbDu+75q5nPcim8oq6zjyLp8+W7uPvtl6WJnruJw09khYwOarDv3kFHsp5BdX0rJVO3pF6U0ZPZgzTp5DwzNTqLq2icqr6tgVbSkVlFT2WjfWNmFEBn3nt69TbYN+mDyqqN979ZyuAg7OcIgzCgaEdkJCBfNlJ59G9BGf8m6xotw4n8Iv/Y033qBrrrmGUKnIDIFP8e5npicoPvPPvvOtme5+39ZvNe87uQgryFnBvXbtWlOCG9vNzOwaSkpsY5t2KJsknLNLG+GY4GBUjB/AzNzhww1NvbGRD2rqi+jIkRgqPZFgZBgltPvFF1+k22+/3fTWFLjChxzeJ0uXb6dam8NLCDzYcWMiw3oI7xlcfu0MLm1VXF7dQ3iPyk7ldLQ3UURY98cHY/z8znNMC28UKnjp0ZvZXtvBvlEsmLIzEunKJZPpygefo925xXQuF5I+szOvjQrWjPFZdMWSSfTTp96nD77siAqcOmYwvfzYLcpuCZQUH6lcrz9xG82/7c/U1t5dcDqa73PzRWfw7moAt2GzlgHhjeIC8IZylk8RIWlmZxjF5rvMLE5JkNSmKBZe4dMG5tPDxvkUigbccq+77jrTigaUDGs+dePhpaF3zJuNvCm8ndZTR7CGdNnCCco21JkcGTj1Xr58uSHc8aIOy6niC7ZCTNm1oBhDN7VpBLNLZGSQciUlN7NNu4wO7o9nbVz/8SGcf+nSpYoJxWzIMgQOIjBvveQM+utra5yZelefR+49XxHcW9g74LWPN1EZa7fnzhlDxWXmCxpcPH+CIrihZT/0p2VKbcepY4Zw3c5sRbsGqUUntu4r6EpoNCIzmc6ePVoR8qrw/sMPL1EE97Nvr6VPeKew7M93dQhxPgw7h+f38ZrdXWtYwn3BD/mskR89rp9KADuXK/ljAbdAZ/gUZzGfffaZIdyV1LXDfYhPk5pZyShj7xLm0yp9PkUyN/irX3XVVaYDzyDAFT7lcmp9UbPV0APpg0b6qPbBJMze4qYLOeMRkzM5GxDIAH9TPUL+5sSkAA7xPUE47CF28fMFgmlm4MA2vsoo91AaHcuL0C3fduTIEUV7Q2i9GVKrwd904XSlmHGdAU3T3vgZKXE0edQg5U/3P/omVdV2hJxvdDKbIQKyQO+s2K64ieHaebCI59jbvAPh/bfXv1LaQ9OH8M7icxJQOheeHjIwnhqaWuhPL6+iH92ySPn98RNVlMEFK2CntqYLO1MLf7B6pyEYb2TvEpAzWjf41MghOrTOpKQBNHpsKX/c4TLnO3yaynyaynx6OHcg5R2N1OXTgwcP0ooVK+i8884zhK/aqJtPp9EL72/o4i9Tg3Q09g3wDE7cc3t/gxMw2wxVYOAJgRfC7Kk9DvFeeuklzVtCO0Wqy+HDA2nqtGOdgtvsLNX20NJZAFg4b7aF/Voto/kaxRfS1Kbx5VqV9ZzhxTR+Qq2SnlPvxH7jxo1K9kOzhA8ktFy4Y9qjcLZdwySiXsjBbEvQQEGwcauC2+w8rNuv2dJhI/8J259HZmnnCg/ofB9ho7/1ko46nkWlHdp+dERHfpjGplb2wQ9QtGTQ7sPFyk+YY1RKjI2kWazZgz5Y3WFy0SLkTEe6BuBnlk8R3YvdkhZ18emIYJoyLb9TcOvNytHf8cyYHy28PoU/x3TyKscMWPDRxcfO+bJkw3JKaMLEGkN8ioNZBMmZJciDIC6d5ohPzY7nD+29qXk79ZW7cslExVfWrNaNF0hLk8G2E1svJNVJTjnJdkNnclzzkixZ/NyZ4S0om6VRxqnL/Zu10IBSbsu5UwJQgabGFN+k8El/EAcCHT2crcwdHyhHyfMRgIT82mpJLyM3woEwzFNXnz2Jnnt3XVcXmK5AKHC87Om7ew01JK3bLp+W3HEQdbxTaGrdNzyst1kKwtWaXvtkM108fzybS+Lp/b/crZgwXmVTDC6UYrOmO/hsBJc1vfl574/YWdNyKD4mQtHijxX1ziB4PrukYdezh+3psfwhePaec+mVDzfS150HpLZrcpZPwdswlTgKNoP9HHyKKym5grKy84w8Rps2rDRYsHvhD58FH1ZcGnqcginnpg9ANj/m1QBUETJXSSg5pUxxUTxyeKgun3700UcKjyJ3uFFSC0pcxXz6z6VrjXbz63beFN5OAQdbt1nBjRtB81TLc9neGForTroVx//kcicEd2K3pmLaJs4+rtDMCdo5Z5kLQIZFzggX0OE1YYTgVcBxm8qLAS0cPu9IpWlP48PB0H333WfK/g28BybF0jmzR9Hn33b406oadGtbew9tOoKFbyQflFkLXLWYbINOxsJn/ucaWjijd+RdbkEZXXj/P7ugOFlVT9c//CL9/K5z6Dw+mMRh5S/uPpeGcmHp3/7TsTsdzD74u2rvtsb2isWTlH8uW7VTOSC2JdVk8hHbwM+amqNc+Bg5Et4qn5otPLF582aHeUB68GkS82m2SQXDAmEIPhvMP2ONsJZVm2juxxcN5Z8cz6DwaQH/zOOfxjIvwktrGPP14dxhmnwKzD788EPloB3mS6MEPk2Oj6Xz546hT77u6elkdAx/audNs4lpzRuFSbH9hSZohuB1Ye/gp8NemETx8fGK4AZzmdO4WbO2LGR3kCs6tpqmBbedVWCbamHb66kr+WdHdRUjhLmrWhg0cAhxe+k4kcgIHgxmSNVq1HJy6Fta0VElaO/hEpp7y1Nd19/f6MhzXlbZXUVIFYZmBZnWHOEe+MAT79CsG/9IH3Z6jlx//jSCecOa/sO7hbPv+bviNQIziL0DUmizizrzar9lRyuHzX4iuweCMnlHAa8V0PicdLqX3RVhN7ems2eNVA48zfIpDpft8SlMJD34NJ751IzghpZt4YRjFi5sbEFJQLOC2/ZJsM6HHaZlLvPpkg7FhYzpgYiPyBqapwyo8il+4hlYEyr9QOEyQ118yruk04GMIe4ZJEwL73PnjFZeCLNC4JNPeod5IwgFl0qIkBw67IjxlVqmMtPy5TFiswM+DMQCPADCtkr3TolJJxU/8KLj6UrYMUqPQYBDYFtr4TgUQgUUVLgxSsD9LM7mlpIQ3SW4jfZVBf2wIcmaXe7jw0wjZhPrQWDm+NnTH9C8acMpJiqMBnPF8ZPV3dGqaJtfXEEv8UEWzCeP3Hc+XfK9fylBUdg1gHBP2Lxx6AkTjDqHFs7tDYL7o0rXntf9zMcNTyNcAxNj6JFnPu5qAz5VKxYZxQjtkNIVZiprgnnE2v85gg8ls4cZzSkP8whs2Hy5eL7ieB1sHlRMhPi48a5M0ci1KTHxJLW2BNPxwgyFT1FlCbsKWz5duXKlkgMFiohRAp/OmTyU4F9f5IQnk9H7+EI7b2reptYfyy/mgunDlZfCDCFlKrwtrAnMYi24B3DSqKysPIPDstZy6iIPC26rqViGdGrhHRVX9CgtvVjZQaiEbSe0NtsKPHgxzBCECmzpi2eaTyi0bV+h4tGBpEyPfv8iFrQ5SnDNXRxYgYAda4K5xfay/jv8q//xi2vol2xz7tKGOUgDLnwg9TDSdm3PvLmGKqob2IMkmXOMoMIm0TEW6u2skePQFfT28m18iBnKWRU71qhWbFnNKQJwSLpp9zHlOl5apfwdH6V1O47S8vXdodkwGS1mLd6s1n348OFeiabAp9aCG3lysLvSy5ejTE7Rtud08qlrB+OG+MQCc8qZnZq9fo+BaSWUkNh9tmCPT6Gkma1YBT6F94kzfKo/a99q4TeaN154PBRbzUQLTmibOPxQCVszaKO2nhlDMvOVZFK6pJo0yLXE8rr36dWABZNlHv+WPxwB+ltJrKe+LrIrGlPddiOXhHqYiRJZCI4wcygEgYQP6GufmPMGgCb84/97j55hoQvbsmpfxjIL2S1v8V1/NQwJbM0LOoUrhDAqq2SxzRu+2t+yIFW1fNsBUSHo/15aSY/xx+OHNy0gHFo2t7TR0i+2kapNX8rnKfgowEZ/4mQtLV+3TxkG2v3dXOdTpfuvPYu+d/08WrnhIP3mHz13dUiUBozN8CmElHWkL/gUgtvW7IXnisRnugRvJssEbqa909Edx3QDPpjGuQ20/IDt/FPbvIn11NVFUUtn6gd7fIp8LigBiBqZRgkK3nzeib384SajXfyynd9o3mfyVsgZrRu5E0B4IeACaCu4cdgHc4MuKW5U8JPua8FtNTPLpA7tRodwqj9ocM/tq3IYyxq4deWd1atX6w3V4+/A/4xxXGg2MpSq6jqESEl5T++YStZuQbBJWxNypNz+q1eVA0EcHEJoL+dkQjB5mKH3Vm6nX/7tI0Vog+CGCMGNgJ0fPdmdXGzb/kKlVBb8vFVC3+38exycBnVq6o8/v5y++LZDSMMPHIIbY9/7+zcdloRD9CgI/uC25CyfqpWawKc4g7EV3PFs58Zhui4pLqlwiexrwW01M8tEngN83LUTTiFV8uDB3c8HI9jjU0RDmyHw6dQxgxTvIZNk2pRrcny3NvcbzXsW2x1bW80dVMK2C4JdDfbdXiXD+FGlDyrSBxSn8xY+mPEFUg5GOWQ7QDuPA0wn8ewvXFnRfZgGHCDAoYGDwZG3HBkIU1O1faWtl43dz0w+sFu+/oBySGkrpN/j3CHrdx7l8PjeLo/fbj/C0Y4mzhXs4A1XQGjLuJC6Fn7/sFPDJGJNEMiqUFZ/j763/eq/fOgd0SWYm5pb6fuPv60cZuJDAE8WfFi06N0VOzjyco+iudsS+NSskvHNN9908SkUDHseFhmDDJThwwG3Bf74vX3t+5x1LTg0ZMCVnaLjbJs4wIT5BHl7VLLlU+QALyoqUtxcjRL4dAanaUC+m/5KfqF5o3RURFiQqYNKaDI4vQdBk7FX6zEtrbhHVkD7DxkeJR2Rdz5D8BiAdqNDsH/bEjQ7fMhUG/imTea2lngppo6Fq1lv7Vq9lz3BrTdXZ/4O0wbC7W0Ft9ZYsKfb8zjBbmDHgeO6glsd257gRqBSdESwaT5VXVjBp/YEN55jaJiO4gI3QOzMyFxyJ2dwN9xH4VOYb7TJCJ+arRaED+i0Tj7Vu7+//t2bwtvwFmUSJyIymxsC/rIguCHZK34K0wIOTXTpFGzNxn1NdcdzVwNsjRV/XccE+yiCI+wJcAgKEHAyE76N54DnIdQbASTMMsunyF8CgpnEHp/CtJA6UC8gBl5TcAE0lrCsT58dhLdFu7pTWFgTe5QgUK0nqSYk/ASfmqk+dDrwqTeFt2EeGsvpPc28FHDWx5caByCO0kxCqMHLRJMU26FxNyXDC3JXQ+VwSPsRIgLTHkHDgxsayNYbR2t6OFwbPjiRQoK9aXFzF4DuHWcc7xDN8imEEnZBOKC0R+BTCHBtPkXaBQR6+SKx4qOY+uI0J6fHp+A7M3yKm2Wn89mBVRZLX0THlTn5h/AemmoqPwS2odZfbUcvhTZwLLQNmCZcAd/1vvzCWzrc3hwRtBocdtkjuEviA2c2lwS8KVAzVKgnAmNM8mlBQYHilYJdkG2QijqyvZ1Tj7vClVTx4/ZlQhi+9hxhFrJ2cbVeDfgUZk8UbzBD/Z1PvSm8DZlNEDyRntwdTGPk4aEYL7RKe3Zu9AeTBAf3zJfRa1zLZCO38n4b5QOjHTGXkNQ7Vwcmrn7gkMHOjOkE9sRhrH0L9URgEGcpNEP79+9X+NRRCDgO80JC9OIaEIXbkWDLp8nCcQpKeL5j0vL6wgcOvvBmTCf9nU+9Irzr6hsMCW485iEcMWdmKwpNRhXejtgE7oGapAQ4+Oo21M7MdQ6FUInH0ccKHzi4TxYX9z7cdIQR/OcRJi7UjQByip86ZbyGKfgU5eqsg8Vs8dTnU+Qp4eAYvyC42HZkZXREKCvoiE+xQ8S5gIf51LBc8gXIvSK8zSw8g7UZM65XCLGFMHK0DQ1gO3dsXIefrmNCrgY/IiW3hLb2pbVmvBTQasxQjmjePeACn5qJqgSfwiXOIZ9yNKU+n2bxHHz+Fe7GCbESpL1jw27DEeG9xi7RDPVnPvX5J5/CvrxmCF9mrdzWMTG1OuHFyPKHfNt+Rjon+jExjlPNYtsOn28zNDChD0KuzUzIy22R88UMwb/eXuIwdYxo5lPtA3VkstT2NjIzn75pi3dLe856fGr20DKFS9r1V/J54T2Et6OOtBN7DwX+3VppJKOju7Pd2X2oSj5uPyRFq3FMeuuGzdvMDifcgzU8/RB9GszBQmb4FEqGa3yKwCrTEYQ+AK223Tsqumdkru2EYfM2kxI6PMSvLCGmno/PC2+zX041MMcRCpGRPTPO9W7nb9qMugJkdnMcjoyCDfA8cUTYrSAHuFEKDvJ51jG6FLe0M8unqJajRfp8ajwq1i0LdNcgSgbCnuXlrIdG/IVWniGzfBoUaEp4m2rsLkicHccrb2BUZETvbPcOVhAZZrz8Eg6Bamocmwdwi/AIncQ+FpQn81NSXgzHpJXUCL7GdXXaWk+Pl8zcS+GngBqfdnSEcb93HPgix7zms9LkUyQq81dXTX6fLdqH3RHhPVMdWONklk+R96a/kleEtxkww4KNg48DI60K6TjJ1g54gKuXFxNPmQHGblvHGg2a64VYmxHeGM+MmcDlpfn4AKHBxl8l8KkWdtA+cTkmRMeac0v0Lfg0ygN6gE/VJGS+hYHrszHOca7fy6kRgjuzvxnpjJcCJ/iOKCRUx2fWEmfkNj7cRnv+eus340ML4TOgH2s1Zh9ysImdCPjUNr+69f30nhNZfCDxlFmAerTXzr+i59vuqL6nvSlBHgRqyASbPsY1RZfW757OPi+8A03YVvX8wYODdAJzfCEbmyvPVeel1lu/mYMgrY+kK0vw175Bfcqnfu5BYdGev14AnRk+7c+7Q98X3ja17bRebnsFd63b6+aI8IdINU3ppu3rrbd+R1Xn7d2yP78UznxAEAlslPTK+Ok9J/827QEl/TzfWljqKWnWfcGn/dXu7fvC24TZpLVNO9FUwAC9c1Ljh6NGX9S+bad9aKa3frVmo9E599eXwuj6rduZsavq4az3nLhkgTNT9KE+2vPXW3+bTZ1PvYWpJfL02vHfjX+BDQzm6SY+L7wPHdEvaKqCdLxIJ8WrnuxG8ni/Jp356/y5Qsd9zRYasy+RX0OrM/mDR3pWhNFqXlSsk+JVlw11G/g41K7xaflJbTdL28U3t+iZS30cLgfT84rwNpPbxIyACOISVlp06pTecv39IWvPX2/9AwYY1+hgojrFFdiFOhBo66xEbwQP1/nUeA4VI/Pp+zZ9x6fKszGuqYvm7U5maG7Wy6rWfTetiLWOh6jni2uguKs7F+f2sRz7xxpZv5abZS9txsRzcfsyfXDAJs60aJRc51MDxbKNTsYb7QL6jk8RNYzyd/2R9FRRr6+5vtF43UqtXBFYSGtrsM56jEcYeh0YexMI0J5/a4v2+u1VcnG0zgYOpxfqRqCBy6gZpUhOBKZF+nxqPJjK6Jz6tp32/PX51HgK3PoGP//QaTwYnxfeNbV64ezdq4uN0U4O1NKsU84sQCdVbN9yuBN3055/S4v2+sN1hIr1hMw8FycW4nddquuM82mMy3yKj7Q/m/i0s3rqvad6Spo189SaiBr2N6bzeeFdUW1cy0hK1I7cam8PJG3GwFe6yt+eYfd8A+yXPFMbNDVqayyOSsbZA6SqWjsNgf+C6NzMK6uM82liAnJ/O97L42yiuUkr0hfY+7OioT33xiZtV0IzfFpZZYpPxebtHPvb71V20rgwhU9nWLh2AEBDg04mtoAid06/D8eCJqbtbaO39qQE4wUWzJ749yEQXrlVWYVxPsUEwyO1oyT1nhXpfKi9AoKhm/JHLuCkZsvGBm3hnaijpFkPftKkZ4qhJfhII5/XvEvKzLkFRcdo53yoq9MLLc73kUdjchoBx7RfiMZw9ojQPrBNTzOeqe5EqXZiJZOz9/vmxaXm+DQmNk5zzfp8quMW66uIBqBik+NdSlNTmObZFA4f0wea4NOy/sunPi+8ceBQUalX+aabUxOTtJMz1dbqJM0PgPA2br/0nXfkiOZUamu01x0eEcUpY40n5Soq0TbR+A4ufTOTJva+MbMbSU5K1n5eunwK4V3WN4tz612Ou8SnIWHhXMRCWzO3vkFRsSk+9Su/FJ8X3ngQBYXGTRmD0rn+pAY11Efo2L25c8ABt7Kr5wfjj1tAnuZtqqu1dyTxidofPdvBCwqN17z0/Pp94w75Jvh08CBtPoXpQNvuzd4+iqLhT8QfG5056/Fpks5HrxefHu+/fOoXwvtovvbX2vqBDc0ewhnbtM0DlZXaB5sUsIeH9KOPsDJfx9TGLpI11dqZ3DJ0PnrWo59k+27HgaVfne94WMoFUN4x43yaOWQQc5j266fPpzCVGd+VehgA/eEDUH/SsesezHrVVdpKRkaGdiUe60ngsBK82l/J54W3hQXE4SPa9lzbh5OQpJ2ovrJCR3gTtJrtfvLMoXXv1pxrhe56iUYMN163M9fk8/ATIF2aJvg096g5Pk1J1S78oc+nbM8NMFc42qVFutSZzRcB2qa9ipPaB+Zt7adoRM5Qw7NQ5QaeTX8knxfep1g7OZBrrmJ0Zmam5rOqr4/kkl96tu8tPIYfBO0EbNbly/JybZNIfEIyRZqwI+J54LkIdSMALfqgST7Nzs7ShBAeJzU12jumDuGtkyvFFx5UwEGehbbb3sly7cryCYnJFBVlPB2uE3zqR9tt8v038BRnUGtsbOIXI88wC44fO5oCdBKwl5VqHxgRiycKWG/4nl5pGHBIV/OqqowjPderzCzt4sW2a9u3P5fRMZ4HxSvY8E1jo8Ppjstn0Xevm0e3XTqTzFZ4NzNvfMyQymH/QeOa8IRxo4mVSU0qL9U7i2Avl4B9PEa7men2bVucISlzdEwwl+i5R2Znm+PTvQqf9l8lw+dXpgqJXXuNHyIGBwfRwLRBmsyCLSk0cE2CjS5gV98yuuG7wVyyVrf1iRPablVIRjVp4ljdcdQGJewiWMjZG9t9XHgjv/YLv7uRLpg7lmaMz6SL5o+nV/5ws+F1mm3Ybuk4Z9m1BxqmMUJBi0FDtHeJsHvX1+nxKd9Tx3RmbEaeaMW7AkVwayu1enzayom/Jk4wzqdl5RWEA+R20stn5Ik1982YPi+82zpfiu0795pCZMyY0brtS4q1C/YqAwSs48ucLVP3xi434BdhwJc8inYyJNgQ62q1/drTBw2hkGC9nC/dE1afQzsZ7+Pycp0YYOigJGpuaaPLH3iObvr5y3T5D/+tRDUmxhnfdpu5rSoktu8yx6fjx+oLpOJiA0WxoWQE5JqZch+0ZTNJwE6+j7a7HhQpPVfWzKyhFBZq3JV1W6e8MCm8xWziTq5QhUQee5xA4zNKw7IzKTZO+wAEJgVcuhSwkpsYv7fueK42CFjOI+jbOYuK9F/6CRPGm5rN5m0dh6NcItdUP1caj8xKpTNYe06O1wuw6r5LSyvP0KaQByrYhId65qOj4pHPLpT5BcZdW7MyB1F0rLatFyYF/cNLztSHQ3bFo8MXyPh8ioq03SbbOf3wxIkTTC1qy3aVTz3zvE1NxkONfV7zbrXS8DZs3mEKhtEGtJrCQnbZsuidRnP+5AGf8Yth/KU0NVEzjQO+0PXpxnCFBYPYT1g7l0lyajoNSjew++icX/GJMjpwqMNjoI10knyZWZODtn9++AqlhNWyp++mlx+9mf75y2sNj5pfUknpybH07lN30iuP3ayM0cSaeHGZZ1zrgIeqtm3YYo5PjXxAjxdm8M5B73XlnCEBW31AgPNBf8AmvvbrPi+sSy/nTgrz6eAMfUVEvVlp2UmCvbuDT0V46z4EMw2iIiNMbE8COH9ah6BYt3GbmdvQBD64jInV1r4RCFGQP9jAuGyiCPiILz4k9ArxCzHgQ0OCG4EOJ0r0Q4inTJlsaiXfbmDB0EmtFs8K7yED45UDRuSrqaptoFEX/44yUuMoNMS4xn/lg8/RR2v20IZdx2jZqh10M5tP2g0WkBiYFEMXs538O1efSYtmjCT8W49aqWNbv26DOT4dO3oERcXo8GmzUT7lvCEBG3UPCPXW4vzf4RKI++ufUcGTRs90Ca176tQppqbTk0+Nm1r4JibkkqkpeaSx8TfBI7c3NmgLvxTBbN9FPo2tO/bQFBMHbJMmTaI1X63SvBE8TyIiGigp2UAehIDVPBa/IJaZxibvjlbwjw34hkfSz02MXND5eUN075o+KJMyBxsPeMCA36zrdkts8XCx5siIUIrmC/UH//b6GhbixLb5QFMVa4rLa+j59/jMwiTNnTKsS8vfdaiIrjp7MmvxcfTrf3xMb37W/QGzHRbCO4SaqexkBW3etoumTTZukpo+bSqtWvmF8rFyROVlSRQR2UDJyXph8TjMhqcU25wtsKkbNzeZhKpnc8X7CQFj+iHpCMgxwqcZzKdZHNBkhr624lP1g2qmv7+09RPhHUbsma1g+uXXG0wJ71Ejc+jAwYN0oli7FuaxvEwKDWum6GgDvt04hAngaDrLdL70BaXzzAC7Ibaf+lqMeo+8o1mkl7cbHiZnzp5lalrY9ai5O/Ax1Qt8wMHg3VfOoT88x2YepvCwYHrgpoX02L8/N3Tf/UdLKCoyjNa+/CDtO1JCFy8YTxt3HzOsOecMSabnf3sDm10GUDSPA+0ddOcjr9HBY9rC5fbLZtEnX++hXz3zMTU2deTNXjxzJD398JWawhsftMhOX2bwqRnhPTwnm/buG8J8ql0LEwIvLLSJomP0+JTnHQDzDdKvjmA+NR6EZegB9WiEYCF4vMDTxlhFobwjWexaqa0Vo1DzmXNmm5oOTKswm4CwYxdXQVPwub9xs6U7EQ1OkY8eM16UGLM5a+4cGhCo75d89HA2+5QbTXqD7Sns4BBO7s6fgAhP1nIHvGZacOuFwQOP0WMnUFycvhnA+kmu/PLbrn82kz5GOGRMsjpgbG5mz49FEw0zB7LH3f7L/9KL729QzB4r1u2n/3mazUYm6MkXVtCzb6+lsso6wv/jMkJx7B++aU9+l+BGn8ITVcouQEMxpmZL9xnDjt376fBRc7lH5s87k9p0/L4xlyOHh+r67netM4A/BgG888SO0e25UOBjzsFsAzA2DgiNCe5jRzNJL4cJ5j958lRKiNcOl7d9niu/MsenNv3FbGLkBTHTBhoNvqADEDjD9MXKr+me268zPER8XCyNnzCFdmxjLVaDYHI4fGgY5YzI5Qx7+iYKZSgkhFKSQvGBiiWHLwQSGC/T1GM6AfgocZCHCU1b7Z9/bAjpRaihbXxiCs2ZxTsGE7R9174eUa7WH1NHw9RxNshQ9rdXKZhNHqdMFhM8evwkm0y+MjHT7qa5+WWEaxDbyS9ZOIE+/Eo7hYD1TRCG/dv7L1Aua8L0tZYAPoX/e2BnwMznzKf33XmD4fmjEtQZZ8ygrZs3aPaBySE3N4dyhudSeLiRcnQ8ceWsBgFE2CmyucyCA0Dj+du7J4SzHxzc885T4VdzB8DgU72IX9wrJi6R5sw+wzB2aLhzzwHad6A7SMoIn9rcQIS3KcQNNm6iCP6vIw/wN+u30DmLz2JbmHGb7Yzpk/kQr4QPSLS3pdjKHTownIblHFbsi8aJtW/kKg74mruwB4cFXhwcHWeB5gCbo/UWEdW/YRJBuDC2tTjkQVIj43UQrecFU4kRwR0YFEQL5p9lfEmdLT/9oqcAxbPQoz25xTR4YBw9+eCldKy4gmZNHEprt2nntrAec/zwdJo7lT+GNvTRl7sIniR6BLPJxBEZlBAbQdCkr1g8SekCG7ae2eRnf/6AEuJ6r7GpWb/0WLPCpx0mDZiazmU+HZpl5EC8Y0XTpkyk40VFdKJIm09RESr3YA4NzTlCkZFGUxgjajiP78JXACsYFkRvItKYc/1YsBNDygjwqerVAk0au0AI6Cq+4M0CkxP+3zzBNAm7vR61tVto0cL5es16/d0ZPrUZRIS3adQNdGhia6IqvNH8w09X0ffuuclAz+4m5527hN54ayk11mvbC2EzPrB/JGUPPUpx8c4wKvuEB3T6hfc4f4LpBvxhYG9sYGXQwGA7NLIFxXBTp82kpERz2tZGdnvbe6A7+KOJTSZGQuPh1YHgmJsvOoOmjBlCBSUV9Ptnjdm71aXPmdQ7HBrC2yjBUwS+3olxUYrXCOj+R9/S7Z5bwAeC2rLT4RiNFuZTq0LQ4NMf3HuL7j2tG1x43tn0yqtvUEuTtlAGnx7cP4KyhuZRfLz+B63nJHhnqWjOnSbILj5VXevAp7hcD7tH+cGjR7J1MwZifgikmj3nTEpO0vZ9twUUB8S793VHt8K0ZzJAx9Qz8oXG3jywBGfoOVh3YdRgiaKEgO7AFAiVHbun08RxowzjiLD5+fPm0eeffcJMoi1A4VN7OHcYpWcUUVq6u2zarr8I6mIRkQZNRu/QR20/fORYmjRhjGGs1IbLPuppJ2404blQU9ekeIo4Q9CQb/jpS850VfrAZLLk7r851R/mkuyM3sIDfuIPP7WMKqod78gaWcmwJggVnNNMNoF9IJ/PnL1kMS1b9j5/fLSXAD49kjvUjXyqv7swAyoSwOGQFRVyjNCIUeBT/ahT27F686lTkbR+pXnref0bwbtP2igJqmxejHfeN6fJYaJIgj9z9lzDcy46nk6HDg7XDSQwPKAbGmJOBw+MMCy4M4Zk04J5c0zfGVpjgU0y+0b+iBoh+Gn/+9fXdzWNDA+ht/90p5GuXW3govfY9y8ijJWaGE0I2okIM+ZfjsPFq8/p9g/GQeOlC40dmOKwEoekuPYfPUGTRw+m6eMyKZglaUOj9qGcu/gUJekWLFyghPgbIYVP2dxn/MDdyKiutSnmCF/sDIwK7jR2C1w4v2OHZIY+/vxLOlbQM5d6g0Una6j9G4jwNgi8aaBsH8jRYwX0wacIXTdH48aMpCnTjftpw4Njz+6xBGb0JlVVxdG+PaNNzSNl4CC6gM1FZgllzt5675Me3RrZcGU0Yi17UCKVs5eHSvUs9Oxps47mBSH98O1LlECdX9xzLn341+/QwMQYauawdyOUnZ7YZedGexw0/vSOJYoA1qMP2TSDg1IcmF5w1jhlHQ8++S7d+otXlChNPapX7MfdBMGy7GNjni7W/UaPHE5nzj2LkJTJCCHoZe/uMQRB7s1wE4Tzg0+VeRikpJR0uuj8cwy27m6G2A9bPsWZjFE+tbmhaZlkesJu7OA3mjfWXE8xvfw2l773KR0zUWlHxW7a5Ak0eaq502ww464d46n0hHaxBzc+H2UomEhyD+UonjB6aTOt750yMIMuvfh8p6bz+tLebnkNNkJJa2CYFpAcSo2IRIRibb1BDx4eGNGUOFj8w3++oLP44PKdFdvphp+9RO16OVQ7J2Vh6VVd19MTo5EPHKGR6xEOOf/zmxvojz++jPL5sPUR9vcur6ojHKIaoQY++LPNuvjO+5/R0TzzhvTJE8fRzFlzCLlajBKUjF07vcCnbCIBn+Iyw6dJKWl0+aUXGl1ej3avMZ/amkBtP54mBvYr4e1Nm7cJTLub1lEsi/CehzOvvLmMfvHQ/abHmz51EgUFBdOmDfqpVdXBcUiEcHqE9SIiMyGxwrhboYkZIt8KsgLCrUovM6C9YdMHZdGF559t4o7dTT9Z/hXBPdCaIIzw8TRK8DYprailj/9+LxWVVtOooan06kfarprWY+MwJI0FPrxE6uqbCZr7rZfMoBfeW2/I5fBYUQVlsd0affZykM+kkYM4eKmNjHiMPP/bG2lUdkd6gUmjBtG/ftXtlgo7eoEBb5d6hU/hSdRNr7z5Pv3q4e8ahbCr3VRWNII58+OXq1dxgI6xXB0qnyIjYVJSOSUmnfQcn1Yk0MmyRP0CJ3ZWnpYxhC664FzTmKDD5yu+ViKuXeFTmxv7lfA2fGDoFLoanc59ch/2ggN2rlhK1aXGg26COBAg3U6x3QvOWUDXXtHTL9fonFEBZe03a6i1xTlXvajoOg56qaKYmBoKjzDid2t/Zm2tQUrlFHiPINuhfiIi++MMGzGaFs03bte3HgVY/O6Jv/cauJoSqdpizgMAg8BWPG0sRw6erKX3Vm7X9JO2vinMJdB8bene379JdQ3GntPwzBT6KZteMAdEWH7/8bdp+37jvGaUf+y1C+L4vnQ7Gf7OWzKPrr/qIqeGRlmvlavYTHjKuBZufSOVTxGdiXQQzhK8nMCnNVWsRlXF06l2/d2M7b3g8z98xBhatMA5PkUpvt88/lc7fJrAfKrvjmjdce71Dyj/vHp67KO3z0//hbO49HU/v9O8kb2tnrelari8CtjHn6/mXB3pNOsMc8mW0H8EhyYnJsTTipWrqLrSQH4Tm6cEzVjVjoOC27ikWL0ixBFuHxLSwnbWVo7wPMXReR0fdjB7Wzu/3i3ByqEjDplQ7cbVwyaEvU+Zxq55k4zn1LBeSmNTE/3n5aW9eBCzrrXEGebNy1lbPs4RiRt359EmDmnHZZagtcPV0BU6xGaXOx551ZUh+JBzghLoA1q54aASqm+EYHPFTkUNl1f7fMq7GvDpnJlTjQzTo82woZnMp1fSZ18sZ8HZEQJuhnrwaRDzKfuHK3waynwaaodP2ZMFglrlU2T/gznEVT5F2Pvs2WfSFBO5X6zXiYpF9vgUbepM8Kkd7PxK8/am8HYaqFpLPEVa+dKqD+HZF9+ggSlJlG0iKELtm5gQR9dcdTmtWPUVu14ZzyViywDQnqE5G/W9NvPyabWN5Yi0efPOooGpeuXdHI/y7AtvEA4qbamWgziM+Har/eAlMpnNDQhLf3/1TvqYM/sZFXrqGDBX3HfNXLr7N687BRFSyc6YkE3fbj+i+HpD05s5Pos2ID+Kjt38kXvPpxq2lz/1ymr63XcvVNwOYSuHCWfBHX8xPJ8OPu1dt/HZF99UntOwbPN5cZDW4Nqrr6AVq9fQwX172OynfwBrb8JKpXYv8GlkTDxXNZpHaQOdPzfCe24vtz/4tL/7dls/S/P7HcOs67mGCEO2Z39t41P5Z/7zGlVVaxc61ZrZ4oXzaP6CxRQZZdy+67mVGht55OjxdA2/0K4I7v+yPVYttGB9VySgqrGYC+y57icv0OK7/kpvfLqFlswaRe/9+S765Jl7e3h/6K0M7oGR4aE0gk0f1hd+b4TSU+I4EdYCpek3nNwKdD/XsjTSfwknoTrOdnoQyqk9ysm0HnjiHUrj/ODxMfrRper8kMCrzs45AQ7YnnnuVaqoNBdabr3uxQvOorPPOY/Cwo25bhrBzJNt4PI4cvQ4uuHaq1wS3Dig3LgF1Xl6EjTBGv5Ynk7kTc3bJXs7BIo9raaECwb89V+v0E8fvIfNFc4tb8TwoYTrq2/WsZ/qHrLoBPR4i2FSUjNo1qwZlMq7DVfofXZjQx4Oe1TD+S/MaN3qGHhZq2obFXe7xNhIykxLULxPjBJyoUwdM5g++Os9PbqcbTDwBqlVoX1bE/6NLIN6hHnjsBS+4Q/9aZkSUj9rYrZirzfj9YH71PA5QZQd7RuZ7/727Mv00wfuYdOaMd9123nnDMsiXF+vXc9eUDtYC3fpldKDxam/AzN4k5w5Z5bLfIq4A5id7PNp4mmldQMD56SbU4/RvZ2Q7hGCxfZEH3fBodufn3mRHvq+uaAQ2xnOO3MW248n0LfrNtKxowgRd9rS49bFxyUkc9HgicoHxlX6bMUaepvd2OwRqhiZPaSEwHvlsVuUQ0p4iKzZkst5sD+hVWwvbmgylnUOcymtqKN1O44q/tXOUjIfeqJyfFhoEN1/7TxDBRVwrz//dzU99ZMr6Przp9FBNplce+5UGjNsIJt/ditrMkOwfVczn8baeJ5gjEOHjyl8+uPv30UDbD40Zu4xd85MhU/XMp8ePLBPyXvuCxQTl0RTpkziMyXX+fSLVd/08udW14gSdGb51BfwcXUOXvtUO+tt0nPBFsXzBCf79mjS+NH04Hdv10xwbxTA2to62rRlO4ekH3baK8XovRy1g9/2OC7tBm3LHQTB/epbHzgcqpwzz8Fn2SydO2eM4h99IK+U8287l8cFWjoqv//VyayCyB/+159epfiZD2ZTSyG79zXzQdn3H19qSADDvDKVP0AopQYtvojLpyF4x2jAjC1maex5EuyATydwiocH77+N7equC926+gbatHkr+1of5B2jc14pZp+3dXvgk5Y+mCZMGEc5Q93DpxDcr7yxzOG0TnISODNurLYDWXmb/J69TX7pyvr7sq+fC29SMrglIZufAxo7ejj94Du3cOpMY7kVjIC/gyuEHz58mMpL4XngWW08MiqWBg8ZQuPHjSGktnUXITIVAU6OCB49J5W0oULuQCCcrd/JGjVQx3DRkO/fezN7Khm3qevNa+fufXToUC5n0yzkQ1vXPwxa9wuLiKLMrGya4GY+/eiz1fTmux87vDWUCygZrpCV8P4dC+9fuTJWX/b1ptnELR8OPLw61g+jHOQV3rPvED32x3/S/XffqHiiuIMmjh9DuFpaWjl/8CEqLCzklKzlnP+kOxzc2fsEctBQXHwiDRyYxhp2tst2QnvzwKGPI9sh2iMgp8rivDeAs2vvz/2Q0AsBZo74FJkb/wA+vetGlw70rDGcMG40C9PR1NoKPs2lgoICKi0t5cLU9cpBrEsUEEjxCYmUnp7OfDrUI3z6xjsfEfKWOCLk+K+0OO9d5dL6faCzN4W325ZfyYImNKBRqXNpj/LyC+n3HHiCAg7jx3BJKDdRSEiwIsRxgerq6ul4cQlHRZ6k6poaaqivp5bmZn55Wtg9rZ0PvNh3g98Z+GMjt3ZISCjvCCK49Fo0p/SMV15aVw8ftZbWwi/xv55/g0/rd2giADxtw7udhSw6PJga+fASOZqdIfRvammnVoNh8bb3iA4PoqbWU2zucM58E8X9W7hvC4/hKlXo8OmxgiIlQOo7zKcwpbiLEJ2pCnKMWc+mFfBpGfNpTVU11TfUc7xBE7Uxf4BP1d1kAPNpEPg0OIT9wTv4NCEhgb2aPMunbW1t9C92W12/absmBMDzdHINtAXDm8LbxU9/91LgzlZhSaVUlHxyQNU1tfTEn5+lG66+hBPkOxfVpfcyRUVF0sjhw5TL1+gI59V47uW3qKBQO71tDfvKOmPntl5vWEggXTgzg2aP6daK9uVX0xdbiunYCf3CAcHsU33hrAyaO65b+z9QWEPLuf+RYv3dDT6QF88aRPMmdIS4g3KP19KKrcV0kH8aIcx/4SQU1Ogg3HflthLCOpwnfT6tZQXgyb88p0RhIhrTExQZGaEcIrrjINHd80OJQwTg2GYJtL1PLcUxn/qPO6+7ccJ43hTebl0Pkq9XUgqLHu3isq++9T7XwCygW667jEOE9WsxunWSXhps+eq19PLr7+neHSl3q1zchkaEBdF9F42g9MSe2I4eEku4/v1JrqYADAkaQPdePIIyU3rmYx45KIZwvfD5Ydp1tMrhWiC477t4JA1L6+n/nJMRTbheWXGUtuX2zDliO9h3LhxOI/he1jSUxxualkOvr+ao0QPmoxvVscCnFcynCTp8CtPW0bxCuvn6y7gQs/vs4LpM4MUGqJP64mv63kXIGojd4elO/UZ440FGJAymkWlpVFnSUW4LkXUR7HWACuDW2+4t23bSgUNH6IarLqbpUyf0Wx4or6ik1976kDZt7R3UYLtouF7i1N5VuoQ1XlvBbT3mXefn0IP/5KK1Dggas63gtm562znD6MfPblUqrtgj9LcV3NbtblrMVdqPVSueJ/bo/DMyeglu63bXLcii/fk1VNvofNEChHAHBbT2SrBmO591m7bRfvDp1RfTjGnGcpG7+vy80R/BSu9+8CknmdpF0VGd5QL58cLU1cymHIuVxQqul+7gU2+s09337FfC++//cw2Ny0mjN998k3btsiqXZeOkgdSguw4W0V/+9TKdOWsaXXXpeaarVLv7Qbh7PLhXvfnuJ3yoqu+XjIMfeJY4E4xjPW9ozdNH6ievGpcVR7vzquwuefZY/QOoiUPjHWrP1qYSR5hOGhZPG/bbz2GzeIr+Bwz9v96tvcPTe57Y4QQGcH6RznqXjtpXsk36b8++olTjAZ8ijUN/IuwKD+7dwR/jdhqd3Rt7nBMhi2NJea2SDhqeJaezndv62fcr4R3OwRiga665hg9gmungwe6adtaLtg6I+GbdZtqweTtddtHZdNG5C/3+vdi5ez+999FyQtY1o1RuSeejXusCyUZ79myXEGNsjEQH7Rz93nY2SQ76R0cYS5fq6D6w1RuhxFhj69QbCx/MAQGn2JCifw6wlotuK3x64dl08fmL9Ib2+b/v4krv4NP8gkKaONJxIXH42A/h6NwQ9tfffDyC+dR9Lr92QHLbOVxfPIB+Jbwf4Gi8c2aPVnCzBA2hrKxWyss7qnhiF5V2a3oIf7amVk50/xZrqavXrCekll00b1ZfYO/Wexw4dJQ++eLLXvmN9W5SZskgI9Xg9cax9/fIyEjFQwEf0srK7hzsRr3UHPU3Wvk0gj0kYmJilN1HRUW3ndvo/cPDwyk2NlZxtTt5stvO7c43HPincCFgztenCzFy9yxd9imt/rqDTxfPn63bx9caHMzNo0+Wf0lbtu1WpoboV5WQegDJzEAB/F9URCjFRHUI6+9+5y668dccUOak15FBHNz5aA3e0vlm/Up4H+SIPlwqrXvlQfpg2duKBn78hL6XQFl5Bb346juKEFyyYA4tPGsWf/GNaXPOPwLXeu5gTXsFH/Rs5221WYLgsK0LanYMR+3h+jh0aHdY9IkTJxR/eKMEoZmTk9PVvKysjPLz8412V4T28OHDu9rj33l5eYb7R0VF0ciRI3v0P3r0qOH+ZhqW8nNAAI8RDRzjlp+spJf4YM+aT0NDncuPYmaerrTdyZo2+HSbTfEE6zGRKtb2PR2ZnUL3s+AeNWoUZ6rcSqgvKtSBQL8S3rYPFeHGt9xyC732+uucU9r4Q0fSIISNI+fHWbOns118Kg3NMp++01NMBneybzdspa+/3cQuVUWmbwMfbphK4PngKUpK6hkQlZqaSsePH1d83Y2Qbf/k5GSlf4cfsj4lJva0vePf6A8t2gjZ9od/c1FRkbKLcD8FED6kiRwprGcDt743lA14pXTw6RkKnzqTZtb96+kYEaH6Kp/mOVGqEDbuSy6/RhHcIKT19TCJ5u1hgE0Pf/XV19Bf3/iWYzGrTPVF0nccqODKGpJB06dMoCkTx9KgDP1DLVM3MtC4oaFRObRC2tbN26wOYw30tW4C2zZsrfAu8STZ1hXEv40KbuVFtZMTxd7vHK3B2/2dwVY5NObIRbN8ikjfFV+uVa7MweDT8QqfDh7kWti4M2tobGzq4lMjXk6O7gH+HDf1LFp8Vned2fzinuUPnZmfTh8R3h4A1eUh4RfaFhDMfuBlTo0FzQEXbI6IhETOlNEjhtJwThLlzpwj6uTaWMPM5axzcGlE6PTe/chq6BohiQDcrCys0XiaEIYNU8WAzhSsxcXawUG280F/mE7UZE3ob0b4w8wSF8cueZ1pgUtKSgxr7ZgL+sP0g+hEEOZjVGt3BdsOPg3RjVdwdA8Et+CCNo787uOYT0eNGEYjwKfx7suNo94fOyEcjuPMBTy6Z/8hp5cfzvU5R3Ot07Fjx9D1115DCHpTacvegi57uIkbYJumlFvkq99ZGXx2QQunD6OJw7nIb3wk51MuocOFFbRpr3Gbqb0HjMomrax5JgSccJiJ0AhjFHO1GVwrWCMHJScm0BAubTUofSDnJEmmlKQEdj2Mo9iYqK6X39G4NZytEO5g5eXsDlVWTkXFJ5QoSESauZOcrUHp7Bxqa2tp9+7d/AJGKaaGhgb9Aznre9VzagH0x4EnDhzxbzOE+6G/emBptn8Tl4RT+yNcu65OP7LTzPy02qLkHDRPV/kUue1xwdYMSkqMVzTzjPRUSmPBnpyUyOHusRQXE22cT9nefqK0nMPrS5lPixSFxsxHVWvdqFZ08YXn0aJFPb1p2viQ8okXlpuClz8ETUtm5nwwPmfgTo4JCNl7pHTavqOlow7ml2vlp3U9B4KpWbrW2JvCGwYsu9uUB288ky6Z15EvBHTmpCzl5xfrD9Gj/1nt0orhWVFiyaR4FuBm7ItaNy07WUG4tmzvOEG3JhwkhYWFcn6IYEULBaNDGDSxSQamEE8TcnJDm2vi1XqabF9iaKrWXibq/R3ZLm37Ayd7/R0JC9vfQyt05f4wvVRVVfWCrQ9sr4oHUDHzaUJAaa86mM4+Rxx04rLLp1wQootPWYiqfArTYX0f8CnOFC688EIaMaJn7qFtXDD6509/oBT1MErjhqVu/Mmt83+fOTD2MPeBjAs5d/aIzznoJ/yZpesefnfVniUOxvK4Ud3oGoy086bwxleul2Pt+3+6iZM1hdOnuSF0rDqQyhrYzzPmFA2OaaezZw6nippG+sfS9UbW5rCNGpQCgRYXwPUJlZ2VZwjMj8sbhPwPCAZB7pe+oNKqJkO3OVFpv11FrTGcHPWvazSWv9pR/2ZOPlVe3UxJOn7cjvobWryJRjBvwcwFQR4XUM58amx9Jm7R1bSZdze4vEEzZsyg8847j3bnltCoi39Hd1w+ix66dbEylejIUMorMi64L1849pUfXDfn1zuKLVM27Qu99lhV4CwOxo0eHNt+dGxS6y7+298KTlRnbtpT6L4Mdd4Aje/peeOn44X1+so9cP0camwLpBd2hNPaAtZUg0Npdk4UlTeF0Kq8EHpvfyhde/YEWnxGtwuZK7ghgXuxJZtj3OJcGcbn+jaz13CpZZCicfeV4AYIcAZYs1M78rCgrIEOFDiuMbqCkz9pETIMauU2+WyTtvcNtuBbDznObbJur/6ZyOaD2rlR3M0Q4NMiS1a/5NO2mJF00UUXdZ1NALuX3t/ANUSrFBhzBifTVWdPMQTpiCFJufddNeuJnSUB45fuj3pge0nQpUNTI/YMSgrP3V0adN6be8Mf5Z8Lf3/fOU8MzUgwZ4czNIO+beRTwht1Ao/URVJhzQC6fW4C/emadLp/YRI9dsVAWjwmirYUB1FNk4XmTs5yG0odOYFT2JQyRMkK7s+EvA8VlEoneC2eCrzRw2fZtwW034Fwhma8dI125OcnG447DJ2H4H6WE1tpETIXbj9s3ysBgluv/+odJ2jzQcea3rOfHOL0tn1vGoUW3n/4NKiLT08F984MCHz/78WVXY/5x7cs4mLU+t5R6Skx+cFBAwbsPRkyiTsH/+GKgTc/enXWD/94ffaNv7k0FaaS5v0nA8/jSNrp08Zk2DtU6pstqt5LZPDv3hTePaaYnhxDqQkRdLy2Y0qTh3T7ICdHB9GY9I5Iq3rWzMfmuN9VD2G38H2GxuqpwBWDz8R0MwhtZFQs4l1EncX9HgVmJ/Tsx4foYxbCRScblQRQuNbuKaM/vr2XClnz1qPnPztMH6wrpMLyhq7+6/aV0/8t3Ud5JfoHhy8vP0LvrS0gaPnq/ZHL5Enuj9SwevTaqjx65+t8yi/lPNed84dAf+KtvUpSKm+Syqcn/JZPk5lPh+ry6aff7KXtbO8GIcryBzcu0IU9KS4S276wgurACSnRQSXDU0O7oqpmDE/YNGtYxOtsRoG5ZOjIrGTn3WJ0Z9I3Dbxp8+6xQkdZ4uzBYKatWRihsTZZIvisv4mrflexLu7dl1Vr/giygbB2pX6fWXyMtkfua1zO0pesAeNylr7eVUq4nCV8bHD5KjUzn5Z18Wm1wwo9vjB/mPGQSdEsn/72X5/Ru0/dqSzhhgum038/2qTURnVEllMWJJ2Bb2cY+wZAC+xxptbYekrNrdvGMsRzB119BLo3Ne8ee8+Sk7WUV1xNGdEdv96W30gMtvL/BRWttLeo45ArMqidtu0/7nF4oOFU8GFRoWUYa7XJHI3o0YQ4hteD6EjY6GHmOWEZbPqFMHwjaegXCHTwaarP8ilMeLgcCe52KxOUrTlq7+Fi+uTrPcpzCBwQQFcumaT5TEor6wajAR9OHimpbhu9p6hpOkd5KgJ86+HK8dvzmy7IjGuHRlG7K7fEXqki8TYxyPW9vnxfbsqls+eG0aCYOHr+6wp6a2MVxUcGKsIbNDWtjWLCAujDNfsM3WLj7mO0eOZIWr/T+ZwUSJMK//BaDptAmbXwgDolB0UoG1f6imAWgSmn0RLZJy5/fbUuuY/7ELDHp2HMp2F9zqfYuUYZNj0i3euBvBM0MiuVPv+293v9JNu+Z08aSnHR4XTwmPZOasfB4sknqxpSRsW2HdxdGhv3yLITy5KiAo/f8I+Dp37+bgnCTSNHJbZvPMZK4vL1ud2Ja7ofQ98fZrjAAt40m/QS3i98uIUuOms03TqhnlYfC1NcBUtr2ml4Qoer4MLsVnrxgy20+7Cx7fR3H3uLxg5Loz38BXcHIXCi1ZLAhpQE3pOdYgHeoNTOhIklhHVz/M4d1MKjQaPiTwU1W8I9HsrujjnLGL6DgH0+BY+CV93Hp7gP+BTmO1f49LIf/JvSU2Kp8ERVLxCLy6ppyV1/pdSkGMrN1zZj1dQ3B/7j7fU/+sWdCx8KCKx79FBV2KJjVZY57CoYOS6l/fiYxOZ1XFkv//7Hv7wWOf3tkF+ZUrwpvO1uUS5/6L9kG6SjgowgHQh4M+QuwW17T3ipoCJ4I2sZKgWxmFUurpICn1xcA9iHPEBJI9+9XLjvdfwGf4WXeRC1WYK5Na6QPnXvM4OltPU/BOzxKfgSu8jefAqO7FZA7PFpO/MpAr/cyacIerInuFW0axuaqVZHcKttl2/InVNcXvviQzef9bcrR8c/w79/gy9U+AhqbWsf8PTr669l5c9RxJrnHOk9wDpeE96x4QOqqhtPxUTGJVF1aU+vnT/99xs2dRRQSmIklzELobKKOiU4Z8s+z9u6XcG4Q/jyeYlfWc5cWbH09UcEoCwo1Wj6KZ+ycB7xnceW/WXG+MF7U+IjG1nzDiuvqo8tKq2J5fD4aOtnFhHbnX0yPS5Yv16gDz1wrwnvpOigwurGliFJg4dT0cHtvSD5dqfxSjA+hKdMRRAQBHwAAZhFvtx8pDvHhoM5ZY6fqf6lYWhyyEYfmLrhKXjN2+S8cdGPY5axqYNo6gU3U0xS36evNIySNDSNQCD7aoUEB/a4zA7i7/3Nrlfa9x0CKZxffv6Cs9qShnREyV80KebxERmxzvuW9t3Uu+7k1YiiR9459tqGIw3XeWHdcksPIzBpYBtdObpn4YJfrDaeHGtschtdN665iqeJzT3C6yLN9B+R2E43T+iZQ8VM/+y4drpjsvP9PQyvDO8iAmPTQ+saWy0BR8pawJR7P3to9FgXh+zz7l7TvLHS31yRef3V02N/xO6AyP4l1P8QgPSGAG7accIpCx34AiWQivaWBRrLetUTQ7gloT8OVXw34qb/PXezK4KXB9w/wC94zvDDRSgufuLf+JtbLfRHy1ub8spbqjnq8gl/FNwA2Kuat/UT3nCoYvye400X8+8QFw9NC3PDQ8UJMC41sbo6bzjf4+OjrgHH5GiDn9Y+e+rf8VONulL/33oKYA6VQbR+WrdDf1umssbU+t7qvG1/Z28MdV72+lvP2Xb+tn9T+6s4qT/xe+vL3pj2XhbrPhgLFyLaENmGJBXxfCE+Pyk+qCFwcFgVBCbqoQVUtYVX5TfFow2EKdLXYXw8L4yJZ4lnjgtjRcUGNbZkhlUe5P+HPS2kui2s5lhTAsYv6OyjKh7qHNR5YIyI6MCmwOzwijz+/3S+gmrbQ0uPNiZibtaHKSqfoC/4DpFYuCIjA5ujhoWfREBHFu5f3x6Sd7gxCe0QNQKBAkED4aIKFms+tMdL3LQXab1/6hhmeFLlffU9UN8Z9ff4acu/mJQ1nzmak+2abOeltT7rMdVxrOeEeeL36u/U/7e+pzUPq+++tQxQeVOdh/X8rMfGvVoyE0O2ZiWF7B+WxilL/ZR8Rnj7KX4ybTsIcFRbWHV19eziouO/4j+P56s6Jjb2b+npGf+MiozQTG7CfcGTIbW1NaOPFxb+kv8fh05NXJThpYxBg//B/TWLSKr9uXjCiMKC/N9x36l4WSMjo14ZPGTI/3J/3egqHiO0oaF+eP6xY7/t7N/OlehfGZKZ9Qfu78wOQPhEEHA7Al41m7h9NTKgTyDQKeAgZOP4graNnVOFnuDG5LmNpVNAQ0OC1o4sZNCK2/QEt53+0NRxQRtvNSK4O8fA3HHhvrD3YP5NIrh9gr1kEp0IOGWIFPQEAQMIwPwAwQkegynE7PYU/SD8cUFbNsuruD/64kAK2rJZRQWmHfgEYw2gjmKWQoKAjyBg9oXwkWnLNPwAAQg7NYsbhCAEuBmC+UTNC4wwVmcyg6n9IcDNCl8IfLwfGAN2bf2E0mZWJ20FARcRMKuNuHg76X4aIYDDJFV4QoibFX4QnKrAheB3RtFQ7wnBb7Y/zDZqH3w8zPY/jR61LNUbCIjw9gbqp8c9Fa+PzqVC+PaqV6oDg+p5gmYQ4mZ5VfU+UW9jtr+qdaM/+prdOZweT1lW6TUEzDK01yYqN/Y7BCA87blNGl0I+quaszNeUdb9jd7Tup2t8BfN2xkUpY/HEBDh7TFoT/uBbXnLrAC2Nps4AyY0fbN2buv79KrE4swkpI8g4CkERHh7ClkZ1xYBs2YTW83ZGeFvbWd3htettW2z9xcOEAQ8ioAzDO3RCcng/RYBs7wGDxFrDxNn+lvbqc32h+C2vr+YTfota/rnwswytH+uUmbtDQRc1VRts1iZ5VVX+6sh8yp2Iry9wUVyT4cImH0hBEpBwCgCtrxltsSU6qnirPC0Fd5mq6TA5KK6OmIOZs0+RnGSdoKAUwiI8HYKNunkBAJmhbe14MTtzEZoutofwtv6/ZB3xYmHLl08h4AwpOewPd1HthW2ZlN62nqKmBXetn7ZZj8eYiY53TnYx9cvwtvHH5AfT8+ssLRdqi1vuir8zfZ31dXRjx+dTN0fEBDh7Q9PyT/naKspm+U12wNPs/1tNXezB6i29xObt3/yYb+dtdkXot8CIQtzOwK2wtuVgBlMziyv2t7PrPC1FfZiRnE7i8iAriBg9oVw5V7S9/RCwNZsYjYxlS1aZm3etsLWLK/bCm9XPz6n19OX1XocAbMM7fEJyQ36DQK2wtas5mpWWOvZzM0Cayu8zWruZu8n7QUBUwiI8DYFlzQ2gYCt5u2q8DZ74Gi2vd7S5F3RQ0j+3qcICEP2Kdyn1c1shbdZXrPtb1YTtw3KMSvMbTVvs/1Pq4cti+17BMy+UH0/Q7mjvyJgK2zNenu46icuwttfOUfmbQgBEd6GYJJGTiBgq6m6KrzNTkGEt1nEpL1fISDC268el19P1iyvuSr8XTXbmP3Y+PXDkcn7HwJmXyj/W6HM2FcQcNVbw9UDT7P9XQ0S8hXcZR79FAER3v30wfrAsmw1Z7PC27a/baIpvSXa2szNVp+3vb+8K3qIy9/7FAFhyD6F+7S6mavC2xYss8Lb1mxitr8I79OKXf1vsSK8/e+Z+cuMXXX1c9VPvNUGKLNmE9v7m80H7i/PSebppwiI8PbTB+cH027iOVoL0FqTc663ad9ssr/t/WyFud5wmL+1wK7S6yB/FwT6EgER3n2J9ml0r4CAgFJebom6ZP53npnld/bvslvzvwtN9i+ybs/9i032t53/ITP9pa0g4GkERHh7GuHTdPz0tIFHw8PDX+flHwwMCnonNib2PTNQREVFr4yIiPiC+1QHBgZuiImNe81M/8jIyDV8fcZ9agcMGLAzNi7WVP/kpKSjUVFRb3D/Q9z/s9jYuFfM3F/aCgKCgCDg1whU19Ta1pI0vJ66+oYw7p+On4Y7WTXkfqHcP41/2tbDNDwc948y3FgaCgKCgCAgCAgCgoAgIAgIAoKAICAICAKCgCAgCAgCgoAgIAgIAoKAICAICAKCgCAgCAgCgoAgIAgIAoKAICAICAKCgCAgCAgCgoAgIAgIAoKAICAICAKCgCAgCAgCgoAgIAgIAoKAICAICAKCgCAgCAgCgoAgIAgIAoKAICAICAKCgCAgCAgCgoAgIAgIAoKAICAICAKCgCAgCAgCgoAgIAgIAoKAICAICAKCgCAgCAgCgoAgIAgIAoKAICAICAKCgCAgCAgCgoAgIAgIAoKAICAICAKCgCAgCAgCgoAgIAgIAoKAICAICAKCgCAgCAgCgoAgIAgIAoKAICAICAKCgCAgCAgCgoAgIAgIAoKAICAICAKCgCAgCAgCgoAgIAgIAoKAICAICAKCgCAgCAgCgoAgIAgIAoKAICAICAKCgCAgCAgCgoAgIAgIAoKAICAICAKCgCAgCAgCgoAgIAgIAoKAICAICAKCgCAgCAgCgoAgIAgIAoKAICAICAKCgCAgCAgCgoAgIAgIAoKAICAICAKCgCAgCAgCgoAgIAgIAoKAICAICAKCgCAgCAgCgoAgIAgIAoKAICAICAKCgCAgCAgCgoAgIAgIAoKAICAICAKCgCAgCAgCgoAgIAgIAoKAICAICAKCgCAgCAgCgoAgIAgIAoKAICAICAKCgCAgCAgCgoAgIAgIAoKAICAICAKCgCAgCAgCgoAgIAgIAoKAICAICAKCgCAgCAgCgoAgIAgIAoKAICAICAKCgCAgCAgCgoAgIAgIAoKAICAICAKCgCAgCAgCgoAgIAgIAoKAICAICAKCgCAgCAgCgoAgIAgIAoKAICAICAKCgCAgCAgCgoAgIAgIAoKAICAICAKCgCAgCAgCgoAgIAgIAoKAICAICAKCgCAgCAgCgoAgIAgIAoKAICAICAKCgCAgCAgCgoAgIAgIAoKAICAICAKCgCAgCAgCgoAgIAgIAoKAICAICAKCgCAgCAgCgoAgIAgIAoKAICAICAKCgCAgCAgCgoAgIAgIAoKAICAICAKCgCAgCAgCgoAgIAgIAoKAICAICAKCgCAgCAgCgoAgIAgIAoKAICAICAKCgCAgCAgCgsD/A9nrndFgiF6SAAAAAElFTkSuQmCC;points=[[0.42,0.68,0,0,0],[0.46,0.68,0,0,0],[0.51,0.68,0,0,0],[0.55,0.68,0,0,0]];" parent="1" vertex="1">
                    <mxGeometry x="350" y="240" width="367" height="278" as="geometry"/>
                </mxCell>
            </root>
        </mxGraphModel>
    </diagram>
</mxfile>